<svg viewBox="0 0 123 57" fill="none"><path d="M62.3423 25.0862L67.895 25.0865C68.7997 25.0865 69.5659 25.1994 70.1929 25.4221C70.8189 25.6456 71.3265 25.9587 71.7189 26.3612C72.4128 27.0327 72.757 27.9435 72.757 29.0959V29.1281C72.757 30.0328 72.539 30.7821 72.1054 31.3747C71.6675 31.9688 71.0821 32.4216 70.3419 32.734L73.1447 36.8265H69.3887L67.021 33.2706H66.9906H65.5959V36.8265H62.3423V25.0862ZM67.7424 30.722C68.3029 30.722 68.7328 30.5951 69.0358 30.3431C69.337 30.0936 69.4893 29.7551 69.4893 29.3288V29.2963C69.4893 28.8262 69.3309 28.4758 69.0174 28.2487C68.7046 28.0184 68.2736 27.9059 67.7272 27.9059H65.5959V30.722H67.7424Z" fill="black"></path><path d="M78.4502 25.0027H81.5874L86.5854 36.8262H83.096L82.2433 34.7286H77.7122L76.8743 36.8262H73.4536L78.4502 25.0027ZM81.301 32.2129L79.9935 28.8761L78.6693 32.2129H81.301Z" fill="black"></path><path d="M87.3198 25.0867H91.8485C92.8986 25.0867 93.8347 25.2295 94.6577 25.5141C95.4771 25.7997 96.1725 26.2 96.7369 26.7146C97.3006 27.2288 97.7313 27.8395 98.0275 28.5501C98.3229 29.2606 98.4708 30.0384 98.4708 30.8896V30.9229C98.4708 31.7722 98.3222 32.5573 98.0206 33.2787C97.7187 34.0008 97.28 34.6231 96.712 35.1489C96.1396 35.6753 95.4399 36.0861 94.6071 36.3826C93.7754 36.678 92.8309 36.827 91.7805 36.827H87.3198V25.0867ZM91.9038 33.9404C92.8798 33.9404 93.6648 33.6844 94.2592 33.1705C94.8537 32.6545 95.1531 31.9227 95.1531 30.9731V30.9402C95.1531 30.0004 94.8537 29.2707 94.2592 28.7497C93.6648 28.2315 92.8801 27.9715 91.9038 27.9715H90.5724V33.9404H91.9038Z" fill="black"></path><path d="M103.07 25.0867H99.8003V36.8277H103.07V25.0867Z" fill="black"></path><path d="M110.693 37.0613C109.79 37.0613 108.952 36.9004 108.18 36.5854C107.407 36.264 106.742 35.8304 106.184 35.2833C105.624 34.7359 105.185 34.094 104.866 33.3535C104.547 32.6169 104.39 31.8297 104.39 30.9893V30.9579C104.39 30.1175 104.547 29.3267 104.866 28.5843C105.185 27.8395 105.63 27.1918 106.198 26.6386C106.771 26.0843 107.442 25.6482 108.214 25.3314C108.984 25.0128 109.822 24.8527 110.727 24.8527C111.633 24.8527 112.472 25.0125 113.244 25.3314C114.015 25.6482 114.68 26.0828 115.237 26.6292C115.798 27.1785 116.237 27.8203 116.556 28.559C116.874 29.296 117.034 30.0843 117.034 30.9228V30.9582C117.034 31.7957 116.874 32.5862 116.556 33.3289C116.237 34.0734 115.794 34.7225 115.223 35.2761C114.652 35.829 113.98 36.2643 113.211 36.5858C112.44 36.9004 111.601 37.0613 110.693 37.0613ZM110.718 34.1262C111.166 34.1262 111.577 34.0427 111.947 33.8734C112.317 33.7078 112.632 33.4815 112.889 33.1958C113.147 32.9091 113.349 32.5782 113.495 32.1971C113.64 31.8174 113.714 31.4142 113.714 30.9893V30.9579C113.714 30.5308 113.64 30.1287 113.495 29.7494C113.349 29.3683 113.142 29.0338 112.872 28.7427C112.603 28.4524 112.284 28.2191 111.915 28.0474C111.545 27.8724 111.135 27.7878 110.685 27.7878C110.237 27.7878 109.831 27.8706 109.468 28.038C109.103 28.2068 108.79 28.4321 108.525 28.7178C108.262 29.0038 108.061 29.3347 107.92 29.7165C107.781 30.0962 107.709 30.499 107.709 30.9224V30.9579C107.709 31.3809 107.784 31.7838 107.928 32.1638C108.075 32.5446 108.279 32.8794 108.543 33.1705C108.805 33.4623 109.123 33.6919 109.494 33.8658C109.861 34.0398 110.27 34.1262 110.718 34.1262Z" fill="black"></path><path d="M62.3423 38.422H68.3538C69.0908 38.422 69.721 38.5113 70.2454 38.6889C70.77 38.8686 71.2047 39.1329 71.55 39.4789C71.7861 39.7129 71.9709 39.9881 72.1043 40.2994C72.2378 40.6122 72.305 40.9713 72.305 41.3737V41.407C72.305 42.0886 72.1347 42.6393 71.797 43.0588C71.4553 43.4775 71.0253 43.8004 70.5043 44.0228C71.2224 44.2578 71.7905 44.5952 72.2121 45.0371C72.6319 45.4804 72.8416 46.0965 72.8416 46.8921V46.9257C72.8416 47.9421 72.4547 48.7359 71.6769 49.3057C70.8988 49.8756 69.8064 50.162 68.3976 50.162H62.3423V38.422ZM67.5598 43.1022C68.0613 43.1022 68.4461 43.0168 68.7086 42.848C68.9722 42.6816 69.1024 42.4252 69.1024 42.0785V42.0448C69.1024 41.7219 68.9776 41.4706 68.7332 41.2996C68.4851 41.1246 68.1166 41.0385 67.6249 41.0385H65.5146V43.1018H67.5598V43.1022ZM68.0295 47.5451C68.5332 47.5451 68.9172 47.4536 69.1877 47.2674C69.4542 47.0841 69.5887 46.8179 69.5887 46.4704V46.4386C69.5887 46.1146 69.4596 45.8579 69.2018 45.6662C68.9461 45.4757 68.5433 45.3817 67.9966 45.3817H65.5142V47.5447H68.0295V47.5451Z" fill="black"></path><path d="M74.4668 38.422H83.8929V41.1882H77.6702V42.9662H83.3061V45.5321H77.6702V47.3943H83.9765V50.1616H74.4668V38.422Z" fill="black"></path><path d="M85.8794 38.422H91.431C92.3368 38.422 93.1016 38.5337 93.7286 38.7572C94.3531 38.9796 94.8626 39.292 95.2556 39.6959C95.9484 40.3663 96.2956 41.2801 96.2956 42.4303V42.4647C96.2956 43.3697 96.0765 44.1182 95.6396 44.7109C95.2054 45.3032 94.6192 45.7574 93.8797 46.0687L96.6807 50.162H92.924L90.5585 46.606H90.5248H89.1338V50.162H85.8798V38.422H85.8794ZM91.2806 44.0568C91.84 44.0568 92.2692 43.9299 92.5711 43.68C92.8727 43.4276 93.0242 43.0909 93.0242 42.6653V42.631C93.0242 42.1624 92.8665 41.8127 92.553 41.5827C92.2413 41.3538 91.81 41.2399 91.2643 41.2399H89.1334V44.0568H91.2806Z" fill="black"></path><path d="M106.071 38.422V44.6274L101.233 38.422H98.1904V50.1613H101.394V43.7223L106.419 50.1613H116.522V38.422H106.071ZM114.322 49.156H109.082V47.5017H110.472V41.4706L109.082 41.582V40.0803L110.847 39.4283H113.001V47.5017H114.322V49.156Z" fill="black"></path><path d="M46.9752 23.7644C45.1456 23.7644 43.5972 22.5632 43.0736 20.9078C42.951 20.5187 44.0774 14.9302 45.4204 12.7321C45.8594 12.5028 46.3735 12.3716 46.9752 12.3716C47.5827 12.3716 48.1005 12.5162 48.5438 12.7672C49.8951 15.0499 50.9622 20.526 50.8646 20.8742C50.3862 22.6012 48.8541 23.7644 46.9752 23.7644Z" fill="white"></path><path d="M50.8813 47.8647L56.8108 25.3443C56.8108 25.3443 60.0392 22.35 59.8519 19.5342C59.4935 14.1525 57.5658 11.1997 57.5658 11.1997C58.4456 10.6013 59.0238 9.59315 59.0238 8.44905C59.0238 6.61322 57.5362 5.12561 55.7004 5.12561C54.5769 5.12561 53.5839 5.68536 52.9822 6.54163C52.9815 6.54018 52.9808 6.54018 52.9797 6.53946C52.9808 6.54416 52.9815 6.5485 52.9822 6.55247C46.2674 3.8828 40.3827 6.55247 40.3827 6.55247L40.3751 6.53114C39.7734 5.68139 38.7841 5.12561 37.6635 5.12561C35.8277 5.12561 34.3397 6.61358 34.3397 8.44942C34.3397 9.59351 34.9197 10.6016 35.7995 11.2001C35.7803 11.2323 35.7637 11.2673 35.7459 11.301C35.4907 11.7287 34.4952 13.5375 33.9079 16.5517C15.814 23.0811 11.4715 23.9645 8.38999 31.8668C6.83874 35.8448 6.3419 42.828 5.12549 50.0559H20.245H47.4621H53.7134C53.0535 48.7148 50.8813 47.8647 50.8813 47.8647ZM46.975 23.7645C45.1453 23.7645 43.597 22.5633 43.0726 20.9079C42.9508 20.5188 44.0772 14.9303 45.4201 12.7322C45.8591 12.5029 46.3733 12.3717 46.975 12.3717C47.5825 12.3717 48.1003 12.5163 48.5436 12.7673C49.8949 15.05 50.962 20.5261 50.8643 20.8743C50.386 22.6013 48.8535 23.7645 46.975 23.7645Z" fill="black"></path><path d="M43.8242 21.2055C43.8242 21.9048 45.2449 23.3957 46.9958 23.3957C48.7481 23.3957 50.1681 21.9048 50.1681 21.2055C50.1681 20.5073 48.7477 19.9385 46.9958 19.9385C45.2449 19.9385 43.8242 20.5073 43.8242 21.2055Z" fill="black"></path></svg>
