<svg xmlns="http://www.w3.org/2000/svg" viewBox="0 0 751 753.06"><defs><style>.cls-1{fill:#0796cb;stroke:#312783;}.cls-1,.cls-12,.cls-3,.cls-4,.cls-5,.cls-6,.cls-7{stroke-miterlimit:10;}.cls-2{fill:#a8cb5e;}.cls-12,.cls-3,.cls-4,.cls-5,.cls-6,.cls-7{fill:none;}.cls-3{stroke:#ffed00;}.cls-3,.cls-4,.cls-5,.cls-6,.cls-7{stroke-width:10px;}.cls-4{stroke:#009fe3;}.cls-5{stroke:#063;}.cls-6{stroke:#1d1d1b;}.cls-7{stroke:#be1622;}.cls-8{fill:#fff;}.cls-9{fill:#be1622;}.cls-10{fill:#4d5155;}.cls-11{fill:#6a6a6a;}.cls-12{stroke:#fff;stroke-width:5px;}.cls-13{fill:#f39200;}</style></defs><title>Radio_Shackle</title><g id="globe"><path class="cls-1" d="M743.5,532.38c0,145-117.53,262.5-262.5,262.5S218.5,677.35,218.5,532.38l-112.33,2c0,207.11,167.89,375,375,375s375-167.89,375-375Z" transform="translate(-105.67 -156.82)"/><path class="cls-2" d="M366.52,816.36c0,9.28-40.14,16.81-49.42,16.81a16.81,16.81,0,1,1,0-33.62C326.38,799.55,366.52,807.07,366.52,816.36Z" transform="translate(-105.67 -156.82)"/><path class="cls-2" d="M828.82,623.65c0,9.28-40.14,16.81-49.42,16.81a16.81,16.81,0,1,1,0-33.62C788.68,606.84,828.82,614.36,828.82,623.65Z" transform="translate(-105.67 -156.82)"/><path class="cls-2" d="M209.58,572.74c0,9.28-39.78,67.72-49.06,67.72S143.35,582,143.35,572.74a16.81,16.81,0,0,1,16.81-16.81C169.44,555.93,209.58,563.46,209.58,572.74Z" transform="translate(-105.67 -156.82)"/><path class="cls-2" d="M515.12,844.73c9,26.72-29.52,54.65-36.4,54.65S466,852.22,466,844.73s5.58-13.57,12.47-13.57S489.13,767.18,515.12,844.73Z" transform="translate(-105.67 -156.82)"/><path class="cls-2" d="M673.88,798.22c9,26.72-31.35,59.33-36.4,54.65-67.18-62.33-32.68-67.76-12.74-54.65,6.26,4.12,5.58-13.57,12.47-13.57S647.89,720.67,673.88,798.22Z" transform="translate(-105.67 -156.82)"/><path class="cls-2" d="M188,731.92c2,3.56,6.24,1.41,11.58,5.49,8.07,6.15,5,16,11,18.9,5.27,2.56,14.25-1.79,18.29-7.92,6.28-9.54.87-23.78-1.22-29.26-2.9-7.63-5.38-8.77-5.18-13.72.39-9.82,10.53-14.26,8.84-18-1.56-3.44-12.23-4-20.12.61-4.45,2.6-5.37,5.28-14.33,21.64C188.7,724.51,186,728.52,188,731.92Z" transform="translate(-105.67 -156.82)"/></g><g id="rings"><circle class="cls-3" cx="687.95" cy="312.11" r="55.46"/><circle class="cls-4" cx="61.96" cy="311.11" r="55.46"/><circle class="cls-5" cx="598.46" cy="153.94" r="55.46"/><circle class="cls-6" cx="141.15" cy="159.84" r="55.46"/><circle class="cls-7" cx="375.5" cy="60.46" r="55.46"/></g><g id="radio"><rect class="cls-8" x="456.15" y="321.7" width="38.04" height="38.04" rx="10" ry="10" transform="translate(464.57 760.83) rotate(-135)"/><path class="cls-9" d="M414.52,619.46,392.24,726.58l-3.17,15.26c-2,9.42,12.5,13.45,14.46,4l22.28-107.12L429,623.45c2-9.42-12.5-13.45-14.46-4Z" transform="translate(-105.67 -156.82)"/><path class="cls-8" d="M438.35,505.19,416.06,612.31l-3.17,15.26c-2,9.42,12.5,13.45,14.46,4l22.28-107.12,3.17-15.26c2-9.42-12.5-13.45-14.46-4Z" transform="translate(-105.67 -156.82)"/><path class="cls-9" d="M465.1,381.21,442.82,488.33l-3.17,15.26c-2,9.42,12.5,13.45,14.46,4l22.28-107.12,3.17-15.26c2-9.42-12.5-13.45-14.46-4Z" transform="translate(-105.67 -156.82)"/><path class="cls-9" d="M525.43,622.53l23.21,106.92L552,744.69c2,9.43,16.51,5.44,14.46-4L543.2,633.78l-3.31-15.23c-2-9.43-16.51-5.44-14.46,4Z" transform="translate(-105.67 -156.82)"/><path class="cls-8" d="M500.62,508.47l23.21,106.92,3.31,15.23c2,9.43,16.51,5.44,14.46-4L518.39,519.71l-3.31-15.23c-2-9.43-16.51-5.44-14.46,4Z" transform="translate(-105.67 -156.82)"/><path class="cls-9" d="M472.79,384.73,496,491.66l3.31,15.23c2,9.43,16.51,5.44,14.46-4L490.56,396l-3.31-15.23c-2-9.43-16.51-5.44-14.46,4Z" transform="translate(-105.67 -156.82)"/></g><g id="sat"><rect class="cls-10" x="309.84" y="523.93" width="76.08" height="76.08" rx="38.04" ry="38.04" transform="translate(-401.15 253.77) rotate(-45)"/><rect class="cls-10" x="369.69" y="502.83" width="38.04" height="38.04" transform="translate(-360.83 270.88) rotate(-45)"/><rect class="cls-11" x="266.92" y="465.26" width="39.66" height="76.08" transform="translate(-377.57 193.35) rotate(-45)"/><line class="cls-12" x1="154.17" y1="319.58" x2="207.97" y2="373.38"/><line class="cls-12" x1="149.63" y1="341.94" x2="176.53" y2="315.04"/><line class="cls-12" x1="167.62" y1="359.93" x2="194.52" y2="333.03"/><line class="cls-12" x1="186.3" y1="378.61" x2="213.2" y2="351.71"/><rect class="cls-10" x="568.41" y="521.7" width="76.08" height="76.08" rx="38.04" ry="38.04" transform="translate(533.8 1227.54) rotate(-135)"/><rect class="cls-10" x="546.61" y="500.6" width="38.04" height="38.04" transform="translate(492.48 1130.19) rotate(-135)"/><rect class="cls-11" x="647.76" y="463.03" width="39.66" height="76.08" transform="translate(679.66 1170.62) rotate(-135)"/><line class="cls-12" x1="588.81" y1="317.36" x2="535.02" y2="371.15"/><line class="cls-12" x1="593.36" y1="339.71" x2="566.46" y2="312.81"/><line class="cls-12" x1="575.36" y1="357.7" x2="548.47" y2="330.81"/><line class="cls-12" x1="556.68" y1="376.38" x2="529.79" y2="349.49"/></g><g id="Layer_7" data-name="Layer 7"><path class="cls-13" d="M419,316.74c13,.32,24,10.66,24,24s-10.88,23.66-24,24c-4.82.12-4.84,7.62,0,7.5,17.12-.42,31.48-14,31.48-31.48S436.11,309.66,419,309.24c-4.83-.12-4.83,7.38,0,7.5Z" transform="translate(-105.67 -156.82)"/><path class="cls-13" d="M531.49,308.65c-17.12.42-31.48,14-31.48,31.48s14.36,31.06,31.48,31.48c4.83.12,4.83-7.38,0-7.5-13-.32-24-10.66-24-24s10.88-23.66,24-24c4.82-.12,4.84-7.62,0-7.5Z" transform="translate(-105.67 -156.82)"/></g></svg>